<svg width="60.000000" height="74.062500" viewBox="0 0 60 74.0625" fill="none" xmlns="http://www.w3.org/2000/svg" xmlns:xlink="http://www.w3.org/1999/xlink">
	<desc>
			Created with Pixso.
	</desc>
	<defs/>
	<path d="M9.79 12.07C6 16.15 6 22.71 6 35.84L6 38.15C6 51.28 6 57.84 9.79 61.92C13.59 66 19.7 66 31.92 66L34.08 66C46.29 66 52.4 66 56.2 61.92C60 57.84 60 51.28 60 38.15L60 35.84C60 22.71 60 16.15 56.2 12.07C52.4 8 46.29 8 34.08 8L31.92 8C19.7 8 13.59 8 9.79 12.07ZM15.09 25.7C15.38 40.76 22.39 49.82 34.67 49.82L35.37 49.82L35.37 41.2C39.88 41.68 43.29 45.23 44.66 49.82L51.04 49.82C49.29 42.96 44.69 39.17 41.81 37.72C44.69 35.94 48.73 31.59 49.69 25.7L43.9 25.7C42.64 30.48 38.92 34.83 35.37 35.24L35.37 25.7L29.57 25.7L29.57 42.41C25.98 41.44 21.44 36.76 21.24 25.7L15.09 25.7Z" fill="#B65353" fill-opacity="1.000000" fill-rule="evenodd"/>
</svg>
