<svg width="60.000000" height="59.000000" viewBox="0 0 60 59" fill="none" xmlns="http://www.w3.org/2000/svg" xmlns:xlink="http://www.w3.org/1999/xlink">
	<desc>
			Created with Pixso.
	</desc>
	<defs/>
	<path d="M60 29.5C60 45.79 46.56 59 30 59C13.43 59 0 45.79 0 29.5C0 13.2 13.43 0 30 0C46.56 0 60 13.2 60 29.5ZM20.08 26.79C17.08 28.08 13.99 29.41 11.17 30.94C9.69 32 11.65 32.75 13.49 33.45C13.78 33.57 14.07 33.68 14.34 33.79C14.57 33.86 14.8 33.93 15.03 34C17.08 34.64 19.36 35.36 21.34 34.28C24.6 32.44 27.68 30.31 30.76 28.18C31.76 27.49 32.77 26.79 33.78 26.1C33.83 26.07 33.88 26.04 33.94 26C34.81 25.45 36.75 24.21 36.03 25.92C34.33 27.74 32.51 29.36 30.68 30.99C29.45 32.08 28.21 33.18 27.01 34.35C25.96 35.19 24.86 36.88 26.04 38.06C28.75 39.92 31.51 41.75 34.26 43.57C35.16 44.16 36.05 44.75 36.95 45.35C38.46 46.54 40.83 45.57 41.16 43.71C41.31 42.86 41.46 42 41.61 41.15C42.43 36.42 43.25 31.7 43.98 26.96C44.08 26.21 44.19 25.47 44.3 24.72C44.57 22.92 44.85 21.11 44.93 19.3C44.71 17.49 42.48 17.89 41.24 18.3C34.86 20.68 28.54 23.25 22.25 25.86C21.53 26.17 20.81 26.48 20.08 26.79Z" fill="#B65353" fill-opacity="1.000000" fill-rule="evenodd"/>
</svg>
